<svg xmlns="http://www.w3.org/2000/svg" width="18.001" height="17.469" viewBox="0 0 18.001 17.469">
  <g id="fb_icon" data-name="fb icon" transform="translate(0 0)">
    <path id="Ellipse_5" data-name="Ellipse 5" d="M11,2a8.871,8.871,0,0,1,9,8.735,8.871,8.871,0,0,1-9,8.734,8.87,8.87,0,0,1-9-8.734A8.87,8.87,0,0,1,11,2Z" transform="translate(-2 -2)" fill="#8bc34a"/>
    <path id="Forma_1_copy" data-name="Forma 1 copy" d="M8.733,1.5l-1.728,0c-1.94,0-3.195,1.125-3.195,2.866V5.681H2.073a.257.257,0,0,0-.272.238V7.833a.257.257,0,0,0,.272.237H3.81V12.9a.257.257,0,0,0,.272.238H6.347A.257.257,0,0,0,6.62,12.9V8.071H8.651a.256.256,0,0,0,.272-.237V5.919a.224.224,0,0,0-.079-.168.291.291,0,0,0-.193-.07H6.62V4.561c0-.538.147-.812.949-.812H8.732A.256.256,0,0,0,9,3.512V1.734A.256.256,0,0,0,8.733,1.5Z" transform="translate(3 2)" fill="#fff"/>
  </g>
</svg>
