<svg xmlns="http://www.w3.org/2000/svg" width="40" height="40" viewBox="0 0 40 40">
  <g id="fb" transform="translate(-1 -1)">
    <path id="Rectangle_2_copy_59" data-name="Rectangle 2 copy 59" d="M21,1A20,20,0,1,1,1,21,20,20,0,0,1,21,1Z" fill="#3b5998"/>
    <path id="Forma_1_copy_5" data-name="Forma 1 copy 5" d="M13.555,2l-2.885,0c-3.241,0-5.334,1.935-5.334,4.931V9.2h-2.9a.433.433,0,0,0-.454.41V12.9a.433.433,0,0,0,.454.408h2.9V21.62a.434.434,0,0,0,.454.409H9.573a.433.433,0,0,0,.453-.409V13.307h3.392a.433.433,0,0,0,.453-.408V9.606a.392.392,0,0,0-.132-.289.477.477,0,0,0-.321-.121H10.026V7.269c0-.926.245-1.4,1.585-1.4h1.943a.433.433,0,0,0,.453-.409V2.4A.433.433,0,0,0,13.555,2Z" transform="translate(13 9)" fill="#fff"/>
  </g>
</svg>
