<svg xmlns="http://www.w3.org/2000/svg" width="39.999" height="40" viewBox="0 0 39.999 40">
  <g id="G_" data-name="G+" transform="translate(-1 -1.99)">
    <path id="Rectangle_2_copy_59" data-name="Rectangle 2 copy 59" d="M21,1.99a20,20,0,1,1-20,20A20,20,0,0,1,21,1.99Z" fill="#dc4e41"/>
    <path id="Combined_shape_8852" data-name="Combined shape 8852" d="M2,11.011A9.971,9.971,0,0,1,18.958,3.867L16.7,6.323a6.668,6.668,0,1,0,1.618,6.688H12.642V9.9h9.311V13.01a10.208,10.208,0,0,1-9.977,8A9.989,9.989,0,0,1,2,11.011ZM24.463,13.44V11.531H22.558V9.894h1.905V7.985H26.1V9.894H28v1.637H26.1V13.44Z" transform="translate(6 10)" fill="#fff"/>
  </g>
</svg>
