<svg xmlns="http://www.w3.org/2000/svg" width="40" height="40" viewBox="0 0 40 40">
  <g id="ptrst" transform="translate(-1 -1.99)">
    <path id="Rectangle_2_copy_59" data-name="Rectangle 2 copy 59" d="M21,1.99a20,20,0,1,1-20,20A20,20,0,0,1,21,1.99Z" fill="#cb2027"/>
    <path id="Forma_1_copy_5" data-name="Forma 1 copy 5" d="M10.222,18.554C9.546,22,8.722,25.3,6.281,27.02c-.753-5.2,1.107-9.11,1.971-13.258-1.473-2.412.177-7.267,3.284-6.07,3.823,1.471-3.311,8.967,1.478,9.9,5,.977,7.041-8.439,3.94-11.5-4.479-4.422-13.039-.1-11.987,6.23.256,1.548,1.9,2.017.657,4.153C2.757,15.859,1.9,13.66,2.012,10.726c.177-4.8,4.433-8.161,8.7-8.626,5.4-.588,10.466,1.928,11.166,6.869.788,5.577-2.437,11.616-8.21,11.182C12.1,20.033,11.448,19.279,10.222,18.554Z" transform="translate(9 7)" fill="#fff"/>
  </g>
</svg>
